<?xml version="1.0" encoding="UTF-8" standalone="no"?>
<!-- Created with Inkscape (http://www.inkscape.org/) -->

<svg
   width="77.923378mm"
   height="78.000504mm"
   viewBox="0 0 77.923378 78.000504"
   version="1.1"
   id="svg5"
   xml:space="preserve"
   inkscape:version="1.2 (dc2aeda, 2022-05-15)"
   sodipodi:docname="favicon.svg"
   xmlns:inkscape="http://www.inkscape.org/namespaces/inkscape"
   xmlns:sodipodi="http://sodipodi.sourceforge.net/DTD/sodipodi-0.dtd"
   xmlns="http://www.w3.org/2000/svg"
   xmlns:svg="http://www.w3.org/2000/svg"><sodipodi:namedview
     id="namedview7"
     pagecolor="#ffffff"
     bordercolor="#000000"
     borderopacity="0.25"
     inkscape:showpageshadow="2"
     inkscape:pageopacity="0.0"
     inkscape:pagecheckerboard="0"
     inkscape:deskcolor="#d1d1d1"
     inkscape:document-units="mm"
     showgrid="false"
     inkscape:zoom="2.0712039"
     inkscape:cx="154.01671"
     inkscape:cy="134.22146"
     inkscape:window-width="1371"
     inkscape:window-height="972"
     inkscape:window-x="548"
     inkscape:window-y="80"
     inkscape:window-maximized="0"
     inkscape:current-layer="layer1" /><defs
     id="defs2" /><g
     inkscape:label="Layer 1"
     inkscape:groupmode="layer"
     id="layer1"
     transform="translate(-69.528189,-67.939286)"><path
       style="fill:#083c5d;fill-opacity:1;stroke-width:0.264583"
       d="m 105.00408,145.79721 c -3.11916,-0.29358 -5.864611,-0.88793 -9.095451,-1.96904 -5.77969,-1.934 -10.34952,-4.80617 -14.95193,-9.39737 -4.6396,-4.62832 -7.48971,-9.22154 -9.50932,-15.3252 -1.3966,-4.22078 -1.91919,-7.54297 -1.91919,-12.20054 0,-10.674377 3.85354,-19.958187 11.42851,-27.533166 4.64327,-4.643268 9.2372,-7.492428 15.33264,-9.509323 4.208531,-1.392542 7.541821,-1.917991 12.200541,-1.923246 4.60347,-0.0052 7.875,0.510313 12.17821,1.918965 6.0833,1.991368 10.63802,4.815578 15.35497,9.52105 4.6456,4.634296 7.52967,9.286933 9.5136,15.347523 1.39624,4.26529 1.91491,7.563837 1.91491,12.178197 0,10.6744 -3.85354,19.9582 -11.42851,27.53318 -4.6493,4.6493 -9.30254,7.53234 -15.35497,9.51361 -4.97859,1.62973 -10.74156,2.30866 -15.66401,1.84536 z m 2.42747,-6.2161 v -2.51355 l 1.25677,-2.6e-4 1.25677,-2.7e-4 v 2.44778 2.44778 l 1.71979,-0.0847 c 3.45786,-0.17038 8.62844,-1.56793 11.88729,-3.21299 l 1.58308,-0.79913 -1.17894,-1.99409 c -0.64841,-1.09699 -1.17893,-2.08804 -1.17893,-2.20257 0,-0.11453 0.46506,-0.46962 1.03347,-0.78908 l 1.03347,-0.58085 1.23339,2.13833 1.23338,2.13832 0.70971,-0.45056 c 2.81747,-1.7887 7.32766,-6.19076 9.25848,-9.0365 l 1.11574,-1.64445 -2.12028,-1.22298 c -1.16615,-0.67264 -2.11656,-1.30185 -2.11202,-1.39826 0.005,-0.0964 0.27451,-0.60805 0.59994,-1.13699 l 0.59168,-0.96171 1.97975,1.15572 c 1.08886,0.63564 2.06704,1.15771 2.17373,1.16014 0.32212,0.007 1.49043,-2.5046 2.30684,-4.95992 0.885,-2.66157 1.47685,-5.45551 1.73676,-8.19866 l 0.18175,-1.91823 h -2.5404 -2.54039 l -5.3e-4,-1.25677 -5.3e-4,-1.25677 2.38294,0.085 c 1.9442,0.0693 2.41142,0.0107 2.53759,-0.31803 0.23759,-0.61916 -0.57477,-5.571637 -1.35034,-8.232127 -0.38155,-1.30889 -1.15528,-3.3647 -1.71939,-4.56848 l -1.02565,-2.18869 -2.02133,1.19504 c -1.11173,0.65728 -2.10863,1.19505 -2.21533,1.19505 -0.1067,0 -0.45538,-0.46506 -0.77484,-1.03347 l -0.58085,-1.03348 2.13833,-1.23338 2.13832,-1.23338 -0.45056,-0.70971 c -1.78936,-2.81851 -6.19095,-7.327796 -9.03905,-9.260215 l -1.64701,-1.117483 -1.23298,2.122016 c -0.67813,1.167109 -1.3062,2.118302 -1.3957,2.113759 -0.0895,-0.0046 -0.5955,-0.274513 -1.12444,-0.59994 l -0.96171,-0.591682 1.15572,-1.979748 c 0.63564,-1.088861 1.15771,-2.067039 1.16014,-2.173727 0.006,-0.276092 -2.18858,-1.345162 -4.36677,-2.126929 -2.27321,-0.815875 -6.21662,-1.680909 -8.79181,-1.928593 l -1.91823,-0.184497 v 2.547729 2.547728 l -1.25677,2.65e-4 -1.25677,2.64e-4 v -2.447779 -2.44778 l -1.71979,0.08474 c -3.46071,0.170519 -8.628581,1.56799 -11.893781,3.216254 l -1.58957,0.802413 1.18542,2.005057 c 0.65199,1.102778 1.18543,2.092354 1.18543,2.199055 0,0.106699 -0.46507,0.45538 -1.03347,0.774843 l -1.03348,0.580845 -1.23338,-2.138325 -1.23339,-2.138326 -0.7097,0.458391 c -2.93592,1.896274 -7.31378,6.166408 -9.25956,9.031705 l -1.11814,1.64653 2.12202,1.23297 c 1.1671,0.67814 2.1183,1.30621 2.11375,1.39571 -0.005,0.0895 -0.27451,0.5955 -0.59994,1.12443 l -0.59168,0.96172 -1.97975,-1.15572 c -1.08886,-0.63564 -2.06703,-1.15771 -2.17372,-1.16015 -0.27609,-0.006 -1.34516,2.18859 -2.12693,4.36678 -0.81021,2.25743 -1.66839,6.195947 -1.91569,8.791797 l -0.18273,1.91823 h 2.54039 2.5404 l 2.6e-4,1.25677 2.6e-4,1.25677 h -2.44777 -2.44778 l 0.0847,1.7198 c 0.17037,3.45785 1.56792,8.62843 3.21298,11.88728 l 0.79914,1.58309 1.99408,-1.17894 c 1.09675,-0.64841 2.0878,-1.17893 2.20233,-1.17893 0.11454,0 0.46962,0.46506 0.78909,1.03347 l 0.58084,1.03347 -2.13832,1.23338 -2.13833,1.23339 0.45057,0.70971 c 1.78935,2.8185 6.19094,7.32779 9.03905,9.26021 l 1.64701,1.11748 1.23297,-2.12201 c 0.67814,-1.16711 1.3062,-2.11831 1.3957,-2.11376 0.0895,0.005 0.59481,0.27409 1.1229,0.59901 l 0.96018,0.59075 -1.20361,2.08362 c -1.40316,2.42905 -1.47687,2.27273 1.69433,3.59291 3.3037,1.37533 8.167971,2.49066 11.413411,2.61698 l 0.85998,0.0337 z m -5.96399,-7.89545 c -0.4862,-0.48619 -0.95772,-1.23034 -1.04784,-1.65365 -0.0901,-0.42331 -0.885001,-3.56762 -1.766391,-6.98736 -1.29774,-5.03518 -1.74865,-6.40241 -2.37085,-7.18886 -1.37504,-1.73803 -1.90315,-3.3005 -1.92659,-5.69998 l -0.0212,-2.17322 -1.19062,1.15045 c -0.65484,0.63274 -1.45069,1.28326 -1.76854,1.44561 -2.22777,1.13781 -4.77092,-1.41777 -3.68602,-3.70403 0.23498,-0.49517 2.7793,-3.25018 5.65405,-6.12224 l 5.22683,-5.221917 2.644651,-0.68522 c 4.80087,-1.24391 10.97946,-1.17105 15.0426,0.17739 1.5295,0.50759 1.9398,0.85297 6.98355,5.878467 3.53194,3.51917 5.4555,5.63288 5.64291,6.20075 0.75836,2.29784 -1.71015,4.5506 -3.80899,3.4761 -0.31785,-0.16273 -1.0069,-0.70559 -1.53122,-1.20635 l -0.9533,-0.91049 -0.14195,2.07093 c -0.16268,2.37356 -0.63654,3.68499 -1.88477,5.21617 -0.7841,0.96185 -1.05947,1.80976 -2.54148,7.8256 -0.91415,3.71079 -1.8276,7.07228 -2.02989,7.47 -0.48829,0.96 -1.64815,1.52584 -3.12772,1.52584 -1.00589,0 -1.37276,-0.15123 -2.19595,-0.90517 l -0.98831,-0.90518 -0.0813,-5.44482 -0.0813,-5.44483 h -1.0432 -1.0432 v 4.90329 c 0,5.52179 -0.19366,6.38033 -1.63773,7.26076 -0.5596,0.34118 -1.33912,0.53433 -2.15905,0.53496 -1.1028,7.9e-4 -1.40751,-0.1233 -2.16721,-0.883 z m 4.34464,-39.278227 c -1.03033,-0.53825 -1.63216,-1.09025 -2.21303,-2.02977 -0.70543,-1.14102 -0.79783,-1.52492 -0.79783,-3.31492 0,-1.76707 0.0928,-2.16465 0.72986,-3.127339 0.40142,-0.606594 1.22617,-1.431338 1.83276,-1.832761 0.97984,-0.648425 1.34607,-0.729864 3.28224,-0.729864 1.99168,0 2.27814,0.06849 3.32662,0.795388 0.75145,0.520973 1.3983,1.290429 1.87487,2.230255 2.68715,5.299191 -2.78408,10.752381 -8.03549,8.009011 z"
       id="path302"
       sodipodi:nodetypes="ssssssssssssssscccccccsccsscccsscscscscsscccccccsscssscccsscscscscsscccccccsscssscccsscscscscssccccccccscssscccsscscscssccccsssccscsscsssssscsssssscccccsscccsssssssss"
       inkscape:export-filename="favicon.png"
       inkscape:export-xdpi="20.861517"
       inkscape:export-ydpi="20.861517" /></g></svg>
