<?xml version="1.0" encoding="UTF-8" standalone="no"?>
<!-- Created with Inkscape (http://www.inkscape.org/) -->

<svg
   width="31.341314mm"
   height="31.304424mm"
   viewBox="0 0 31.341314 31.304424"
   version="1.1"
   id="svg356"
   xmlns="http://www.w3.org/2000/svg"
   xmlns:svg="http://www.w3.org/2000/svg">
  <defs
     id="defs353" />
  <g
     id="layer1"
     transform="translate(-73.65868,-105.16135)">
    <path
       style="fill:#000000;stroke-width:0.0423333"
       d="m 88.036045,136.43799 c -3.16286,-0.27382 -6.00636,-1.41477 -8.56416,-3.43637 -0.56016,-0.44274 -1.89966,-1.78747 -2.37301,-2.38229 -0.72246,-0.90783 -1.47685,-2.1167 -1.95201,-3.12794 -1.8018,-3.83467 -1.97374,-8.19618 -0.48163,-12.21789 0.25386,-0.68425 0.85196,-1.9172 1.24241,-2.56117 2.36683,-3.90358 6.3118,-6.58779 10.7949,-7.34499 1.04822,-0.17705 1.80942,-0.22672 3.04483,-0.19867 1.36074,0.0309 2.27307,0.15396 3.51683,0.4744 5.71257,1.47181 10.145825,6.08555 11.389235,11.85293 0.47866,2.22018 0.46106,4.61789 -0.0502,6.83683 -1.05607,4.58366 -4.08138,8.41357 -8.312205,10.5229 -1.58826,0.79184 -3.23889,1.28674 -5.08,1.52311 -0.62741,0.0806 -2.52045,0.11582 -3.175,0.0592 z m -9.1911,-7.07808 c 0.38464,-2.56955 0.46398,-2.96812 0.6847,-3.43958 0.15069,-0.32188 0.36474,-0.57212 0.62788,-0.73403 0.59418,-0.3656 2.25087,-0.88682 4.74585,-1.49312 0.57044,-0.13862 1.06713,-0.26117 1.10375,-0.27233 0.0494,-0.0151 0.0305,0.0534 -0.0735,0.26593 -0.38177,0.77983 -0.45565,1.93425 -0.16217,2.53409 0.20825,0.42565 0.52967,0.54748 1.10606,0.41924 0.38695,-0.0861 0.64957,-0.069 1.00771,0.0656 0.3332,0.12522 0.84933,0.63105 1.1961,1.17225 l 0.25071,0.39129 0.25116,-0.39066 c 0.3615,-0.56229 0.72365,-0.93058 1.09366,-1.1122 0.39908,-0.19589 0.61858,-0.22107 1.10073,-0.12627 0.23479,0.0462 0.44872,0.065 0.54116,0.0477 0.34197,-0.0641 0.58666,-0.35431 0.69814,-0.82784 0.15343,-0.65178 -0.0415,-1.85477 -0.38033,-2.3469 -0.0808,-0.11742 -0.081,-0.12054 -0.003,-0.0981 0.0442,0.0128 0.66335,0.16666 1.37581,0.34199 2.06671,0.50859 3.52888,0.95425 4.23724,1.29147 0.53963,0.2569 0.84572,0.63513 1.04816,1.29523 0.10269,0.33483 0.24793,1.17387 0.51296,2.96334 0.10001,0.67521 0.18992,1.23719 0.199795,1.24883 0.0574,0.0676 0.89437,-0.98838 1.44922,-1.82834 1.87557,-2.83936 2.68053,-6.34022 2.24241,-9.75245 -0.28973,-2.25646 -1.04331,-4.27282 -2.30894,-6.17804 -0.57533,-0.86608 -1.04571,-1.43429 -1.857945,-2.24435 -2.42191,-2.41544 -5.50885,-3.85855 -8.91378,-4.16709 -0.62485,-0.0566 -1.95667,-0.0567 -2.58233,-8e-5 -1.83142,0.16561 -3.58406,0.66855 -5.22817,1.50027 -3.08308,1.55967 -5.45556,4.09833 -6.83008,7.30847 -0.4047,0.94516 -0.75995,2.16967 -0.93484,3.22223 -0.27021,1.62625 -0.25528,3.37021 0.0432,5.04446 0.36727,2.06038 1.30537,4.22189 2.5737,5.93016 0.36791,0.49553 0.92747,1.16477 0.97387,1.16477 0.0177,0 0.1128,-0.53817 0.21126,-1.19592 z m 10.25448,-3.07871 c -0.62975,-1.16325 -1.51105,-2.27435 -2.2368,-2.82005 -0.18118,-0.13623 -0.3341,-0.24975 -0.33982,-0.25227 -0.006,-0.002 0.11109,-0.3522 0.25958,-0.77706 0.17277,-0.49432 0.25274,-0.77792 0.22207,-0.78759 -0.0264,-0.008 -0.40034,-0.0365 -0.83108,-0.0627 -1.78738,-0.10868 -3.14672,-0.36475 -3.86949,-0.72891 -0.2271,-0.11442 -0.66018,-0.49637 -0.66018,-0.58224 0,-0.0193 0.1336,-0.29276 0.29689,-0.60758 0.96891,-1.86803 1.42292,-3.33535 1.65008,-5.33285 0.10949,-0.96279 0.22124,-1.53482 0.41113,-2.10443 0.51208,-1.53613 1.48635,-2.68839 2.82774,-3.34432 0.76245,-0.37283 1.72218,-0.60671 2.49766,-0.60868 1.06153,-0.003 2.36895,0.42017 3.27153,1.05813 1.33832,0.94597 2.19696,2.56588 2.42076,4.56704 0.17096,1.52876 0.31378,2.25418 0.64558,3.27916 0.26006,0.80339 0.47977,1.32474 0.96846,2.29806 0.20745,0.41317 0.37717,0.76767 0.37717,0.78779 0,0.0201 -0.0754,0.12217 -0.16744,0.22679 -0.50947,0.57879 -1.96744,0.94283 -4.38339,1.09447 -0.44238,0.0278 -0.8125,0.0578 -0.82249,0.0667 -0.01,0.009 0.092,0.33508 0.22662,0.72479 0.13463,0.38971 0.25363,0.73835 0.26444,0.77475 0.0131,0.0441 -0.0556,0.11666 -0.20545,0.21723 -0.73153,0.4908 -1.71194,1.70418 -2.36206,2.92334 -0.12106,0.22701 -0.22317,0.4124 -0.22692,0.41197 -0.004,-4.2e-4 -0.10931,-0.19011 -0.23459,-0.42152 z"
       id="path302" />
  </g>
</svg>
