<?xml version="1.0" encoding="UTF-8" standalone="no"?>
<!-- Created with Inkscape (http://www.inkscape.org/) -->

<svg
   width="31.343529mm"
   height="31.290571mm"
   viewBox="0 0 31.343529 31.290571"
   version="1.1"
   id="svg5"
   xml:space="preserve"
   xmlns="http://www.w3.org/2000/svg"
   xmlns:svg="http://www.w3.org/2000/svg"><defs
     id="defs2" /><g
     id="layer1"
     transform="translate(-63.974919,-91.833086)"><path
       style="fill:#000000;stroke-width:0.0423333"
       d="m 78.311141,123.09699 c -4.95806,-0.44028 -9.379844,-3.16647 -12.00613,-7.40219 -2.013536,-3.24748 -2.75842,-7.15201 -2.092377,-10.96783 0.885142,-5.071058 4.314688,-9.456142 9.041984,-11.561248 1.46753,-0.653504 2.823668,-1.02656 4.628949,-1.273367 0.64742,-0.08851 2.969913,-0.07503 3.683,0.02138 2.522315,0.341018 4.728295,1.160348 6.752167,2.507844 4.5137,3.005223 7.158437,8.103961 6.992327,13.480391 -0.14652,4.74238 -2.329229,9.05134 -6.055591,11.95452 -2.232796,1.73956 -4.795343,2.79302 -7.744257,3.18367 -0.575549,0.0763 -2.580496,0.11185 -3.200072,0.0568 z m 0.380849,-7.66214 0.208012,-2.08316 -0.516752,-0.89394 c -0.481392,-0.83278 -0.517931,-0.91168 -0.533968,-1.15306 -0.02081,-0.31326 0.05481,-0.49859 0.290237,-0.71128 0.247989,-0.22405 0.380889,-0.24275 1.620666,-0.22806 1.205559,0.0143 1.227236,0.0183 1.485105,0.27377 0.168253,0.16671 0.245641,0.37253 0.242391,0.64468 -0.0026,0.21689 -0.03593,0.28905 -0.530856,1.149 l -0.528091,0.91758 0.209146,2.08775 c 0.115031,1.14826 0.216026,2.09462 0.224435,2.10303 0.0161,0.0161 0.06826,-0.0774 2.566702,-4.60153 0.867928,-1.57162 1.584197,-2.86464 1.591707,-2.87337 0.0075,-0.009 0.238286,0.024 0.512833,0.0727 0.274547,0.0487 0.936427,0.15661 1.470842,0.23982 1.122677,0.17481 1.63537,0.28028 2.053216,0.4224 0.906907,0.30846 1.463364,0.85116 1.760196,1.71668 0.240596,0.70154 0.319675,1.28953 0.352787,2.62315 l 0.0268,1.0795 0.301416,-0.42334 c 3.437067,-4.8273 3.511707,-11.42984 0.185206,-16.382878 -0.944859,-1.40686 -2.264745,-2.75943 -3.688158,-3.779476 -2.027594,-1.453019 -4.574269,-2.378266 -7.1418,-2.59473 -0.74678,-0.06296 -2.416764,-0.02807 -3.076332,0.06428 -2.279281,0.319111 -4.253124,1.057189 -6.117167,2.28739 -3.07594,2.030006 -5.329427,5.273814 -6.132337,8.827254 -0.824106,3.64725 -0.242875,7.42219 1.631341,10.59515 0.308172,0.52172 0.897552,1.38519 0.94549,1.38519 0.01667,0 0.04098,-0.48102 0.05401,-1.06892 0.04434,-1.99906 0.313624,-2.9828 1.006664,-3.6775 0.505211,-0.50643 1.138682,-0.74568 2.621828,-0.99024 1.898331,-0.31301 2.505496,-0.40796 2.519469,-0.39399 0.01433,0.0143 0.424167,0.75396 2.177296,3.92931 0.482057,0.87313 1.121192,2.03031 1.4203,2.57153 0.299109,0.54121 0.551824,0.97603 0.56159,0.96626 0.0098,-0.01 0.111362,-0.95517 0.225769,-2.10091 z m 0.626916,-6.47729 c -0.455499,-0.0511 -0.79617,-0.15388 -1.244839,-0.37557 -0.934231,-0.4616 -1.71265,-1.2964 -2.288311,-2.45405 -0.335637,-0.67497 -0.587628,-1.44753 -0.711928,-2.18266 l -0.04986,-0.29485 -0.197622,0.0122 c -0.305291,0.0188 -0.549046,-0.10781 -0.663709,-0.34468 -0.08989,-0.18569 -0.378229,-1.40135 -0.413833,-1.74477 -0.02316,-0.22338 0.09166,-0.44372 0.282425,-0.54199 0.139248,-0.0717 0.435824,-0.0802 0.783167,-0.0224 0.04657,0.008 0.08167,-0.005 0.078,-0.0282 -0.0037,-0.0233 -0.03011,-0.33761 -0.05875,-0.6985 -0.06505,-0.819508 -0.03021,-1.747918 0.08498,-2.264838 0.170929,-0.767 0.602646,-1.433682 1.205122,-1.861006 0.472489,-0.335127 1.239016,-0.672547 2.085902,-0.926568 0.219815,-0.06593 0.445043,-0.126246 0.671948,-0.179443 0.619357,-0.145205 1.554964,-0.185154 1.981868,-0.08462 0.535127,0.126017 0.964616,0.402702 1.203881,0.775564 l 0.130726,0.203719 0.381077,0.0519 c 0.697459,0.09499 1.108679,0.326654 1.430968,0.806154 0.439938,0.65453 0.554457,1.51643 0.461726,3.475048 -0.03561,0.75213 -0.03414,0.77797 0.04233,0.74673 0.04357,-0.0178 0.203045,-0.041 0.354386,-0.0515 0.336196,-0.0234 0.534812,0.0632 0.647928,0.28252 0.09499,0.18415 0.08318,0.31269 -0.111323,1.21095 -0.221013,1.02071 -0.32887,1.17502 -0.823956,1.17883 -0.23125,0.002 -0.268479,0.0132 -0.283677,0.0867 -0.0096,0.0466 -0.05874,0.28469 -0.109152,0.52917 -0.604406,2.93108 -2.688411,4.94095 -4.869481,4.69625 z"
       id="path304" /></g></svg>
